<svg width="23" height="18" viewBox="0 0 23 18" fill="none" xmlns="http://www.w3.org/2000/svg">
<path fill-rule="evenodd" clip-rule="evenodd" d="M20.1304 0H2.7391C1.54345 0 0.565186 0.9 0.565186 2V16C0.565186 17.1 1.54345 18 2.7391 18H20.1304C21.3261 18 22.3043 17.1 22.3043 16V2C22.3043 0.9 21.3261 0 20.1304 0ZM8.17388 14H4.91301C4.31519 14 3.82606 13.55 3.82606 13C3.82606 12.45 4.31519 12 4.91301 12H8.17388C8.77171 12 9.26084 12.45 9.26084 13C9.26084 13.55 8.77171 14 8.17388 14ZM8.17388 10H4.91301C4.31519 10 3.82606 9.55 3.82606 9C3.82606 8.45 4.31519 8 4.91301 8H8.17388C8.77171 8 9.26084 8.45 9.26084 9C9.26084 9.55 8.77171 10 8.17388 10ZM8.17388 6H4.91301C4.31519 6 3.82606 5.55 3.82606 5C3.82606 4.45 4.31519 4 4.91301 4H8.17388C8.77171 4 9.26084 4.45 9.26084 5C9.26084 5.55 8.77171 6 8.17388 6ZM18.7174 8.12L15.2717 11.29C14.8478 11.68 14.1521 11.68 13.7282 11.29L12.1956 9.87C11.7717 9.48 11.7717 8.85 12.1956 8.46C12.6195 8.07 13.3043 8.07 13.7282 8.46L14.5 9.17L17.1848 6.7C17.6087 6.31 18.2934 6.31 18.7174 6.7L18.7282 6.71C19.1413 7.1 19.1413 7.74 18.7174 8.12Z" fill="black" fill-opacity="0.7"/>
</svg>
